<svg id="图层_1" data-name="图层 1" xmlns="http://www.w3.org/2000/svg" viewBox="0 0 92.8 14.53"><defs><style>.cls-1{fill:#e50012;fill-rule:evenodd;}</style></defs><title>2023125</title><path class="cls-1" d="M15.12,13.43l.28.25c-1.81,1.82-3.67,3.64-5.48,5.47l-.27-.27a5.24,5.24,0,0,0-.84-5.78A5.24,5.24,0,0,0,8,18.88l-.26.27C5.88,17.33,4,15.51,2.2,13.69l.29-.26a5.21,5.21,0,0,0,5.78-.87,5.26,5.26,0,0,0-5.79-.87l-.28-.25C4,9.62,5.87,7.8,7.68,6L8,6.24A5.24,5.24,0,0,0,8.81,12h0a5.22,5.22,0,0,0,.87-5.8L10,6c1.81,1.82,3.67,3.64,5.48,5.46l-.28.26a5.21,5.21,0,0,0-5.8.89,5.23,5.23,0,0,0,5.77.86" transform="translate(-2.2 -5.35)"/><path class="cls-1" d="M28.41,6.16v9.9A3.13,3.13,0,0,1,26,19c-2.45.41-4.25,0-4.31-2.81V6.16h2V5.61H16.92v.55h2V16a3.62,3.62,0,0,0,3.17,3.63,7.51,7.51,0,0,0,5.29-.51A3.94,3.94,0,0,0,29,15.65V6.16H31V5.61H26.39v.55Z" transform="translate(-2.2 -5.35)"/><path class="cls-1" d="M39.35,14.74l-2-5.63h-.18l-1.94,5.63ZM31.45,19h1.72L37.91,5.35h.69L43.48,19h1.68v.55H38.7V19h2.14l-1.3-3.68H35L33.77,19H35.9v.55H31.45Z" transform="translate(-2.2 -5.35)"/><polygon class="cls-1" points="43.4 13.63 45.45 13.63 45.45 0.82 43.38 0.82 43.38 0.27 48.7 0.27 54.69 9.54 54.91 9.53 54.91 0.82 52.86 0.82 52.86 0.27 57.46 0.27 57.46 0.82 55.46 0.82 55.46 14.38 54.91 14.38 54.67 14.37 46.17 1.17 46 1.17 46 13.63 47.99 13.63 47.99 14.18 43.4 14.18 43.4 13.63"/><path class="cls-1" d="M81.71,14.74l-2-5.63h-.18l-1.94,5.63ZM73.81,19h1.72L80.28,5.35H81L85.84,19h1.68v.55H81.06V19h2.15L81.9,15.29H77.4L76.13,19h2.13v.55H73.81Z" transform="translate(-2.2 -5.35)"/><polygon class="cls-1" points="86.08 13.63 88.08 13.63 88.08 0.82 86.05 0.82 86.05 0.27 92.8 0.27 92.8 0.82 90.79 0.82 90.79 13.63 92.8 13.63 92.8 14.18 86.08 14.18 86.08 13.63"/><path class="cls-1" d="M71.5,9.58H72v-4h-.42c-.26.25-.51.51-.77.77-1.26-1-2.95-1.22-4.95-.81-3,.77-4.55,3.12-4.7,7.09.14,4.5,2.7,6.84,5.68,7.22a6.28,6.28,0,0,0,4.2-1.15l.77.87h.46v-4.2h-.55a4.87,4.87,0,0,1-2.05,3.33c-1.73,1.14-4.31.65-5-.87C64.07,16.63,64,14,64.08,11c0-2.54.45-4.63,2.46-5,3.32-.48,4.36,1.33,5,3.6" transform="translate(-2.2 -5.35)"/></svg>